<?xml version="1.0" encoding="UTF-8" standalone="no"?>
<!-- Created with Inkscape (http://www.inkscape.org/) -->
<svg
   xmlns:dc="http://purl.org/dc/elements/1.1/"
   xmlns:cc="http://creativecommons.org/ns#"
   xmlns:rdf="http://www.w3.org/1999/02/22-rdf-syntax-ns#"
   xmlns:svg="http://www.w3.org/2000/svg"
   xmlns="http://www.w3.org/2000/svg"
   xmlns:xlink="http://www.w3.org/1999/xlink"
   xmlns:sodipodi="http://sodipodi.sourceforge.net/DTD/sodipodi-0.dtd"
   xmlns:inkscape="http://www.inkscape.org/namespaces/inkscape"
   width="48px"
   height="48px"
   id="svg2386"
   sodipodi:version="0.32"
   inkscape:version="0.46"
   sodipodi:docname="clock.svg"
   inkscape:output_extension="org.inkscape.output.svg.inkscape"
   inkscape:export-filename="/home/daz/Pictures/icons/icicl/png/clock.png"
   inkscape:export-xdpi="90"
   inkscape:export-ydpi="90">
  <defs
     id="defs2388">
    <filter
       inkscape:collect="always"
       id="filter4488">
      <feGaussianBlur
         inkscape:collect="always"
         stdDeviation="0.12425812"
         id="feGaussianBlur4490" />
    </filter>
    <linearGradient
       inkscape:collect="always"
       id="linearGradient3967">
      <stop
         style="stop-color:#ffffff;stop-opacity:1;"
         offset="0"
         id="stop3969" />
      <stop
         style="stop-color:#ffffff;stop-opacity:0;"
         offset="1"
         id="stop3971" />
    </linearGradient>
    <linearGradient
       inkscape:collect="always"
       xlink:href="#linearGradient3967"
       id="linearGradient3973"
       x1="36.639923"
       y1="10.711333"
       x2="35.581474"
       y2="16.066296"
       gradientUnits="userSpaceOnUse" />
    <linearGradient
       inkscape:collect="always"
       xlink:href="#linearGradient3167"
       id="linearGradient3189"
       gradientUnits="userSpaceOnUse"
       x1="-10.292396"
       y1="461.78082"
       x2="-10.757737"
       y2="446.14532" />
    <linearGradient
       inkscape:collect="always"
       id="linearGradient3177">
      <stop
         style="stop-color:#00405b;stop-opacity:1"
         offset="0"
         id="stop3179" />
      <stop
         style="stop-color:#019bdb;stop-opacity:1"
         offset="1"
         id="stop3181" />
    </linearGradient>
    <linearGradient
       inkscape:collect="always"
       xlink:href="#linearGradient3177"
       id="linearGradient3187"
       gradientUnits="userSpaceOnUse"
       x1="-13.084444"
       y1="461.78082"
       x2="-13.084444"
       y2="455.85181" />
    <linearGradient
       inkscape:collect="always"
       id="linearGradient3593">
      <stop
         style="stop-color:#3ab1d5;stop-opacity:1;"
         offset="0"
         id="stop3595" />
      <stop
         style="stop-color:#287a93;stop-opacity:1"
         offset="1"
         id="stop3597" />
    </linearGradient>
    <linearGradient
       inkscape:collect="always"
       xlink:href="#linearGradient3593"
       id="linearGradient3193"
       x1="-8.4054232"
       y1="454.5874"
       x2="-5.841032"
       y2="458.82394"
       gradientUnits="userSpaceOnUse" />
    <linearGradient
       id="linearGradient3167">
      <stop
         style="stop-color:#035b95;stop-opacity:1"
         offset="0"
         id="stop3169" />
      <stop
         style="stop-color:#62b1d7;stop-opacity:1;"
         offset="1"
         id="stop3171" />
    </linearGradient>
    <linearGradient
       inkscape:collect="always"
       id="linearGradient3505">
      <stop
         style="stop-color:#ffffff;stop-opacity:1;"
         offset="0"
         id="stop3507" />
      <stop
         style="stop-color:#ffffff;stop-opacity:0;"
         offset="1"
         id="stop3509" />
    </linearGradient>
    <linearGradient
       inkscape:collect="always"
       id="linearGradient3215">
      <stop
         style="stop-color:#ffffff;stop-opacity:1"
         offset="0"
         id="stop3217" />
      <stop
         style="stop-color:#daf1f8;stop-opacity:0;"
         offset="1"
         id="stop3219" />
    </linearGradient>
    <inkscape:perspective
       sodipodi:type="inkscape:persp3d"
       inkscape:vp_x="0 : 24 : 1"
       inkscape:vp_y="0 : 1000 : 0"
       inkscape:vp_z="48 : 24 : 1"
       inkscape:persp3d-origin="24 : 16 : 1"
       id="perspective2394" />
    <linearGradient
       inkscape:collect="always"
       xlink:href="#linearGradient3215"
       id="linearGradient3221"
       x1="19.857143"
       y1="6.2857141"
       x2="24.142857"
       y2="25.57143"
       gradientUnits="userSpaceOnUse"
       gradientTransform="matrix(0.9756022,0,0,0.9756022,0.231031,1.2526024)" />
    <radialGradient
       inkscape:collect="always"
       xlink:href="#linearGradient3505"
       id="radialGradient3511"
       cx="21.526428"
       cy="28.005011"
       fx="21.526428"
       fy="28.005011"
       r="17.237703"
       gradientTransform="matrix(-4.7036838e-7,-1.3266515,1.4255675,0,-16.649451,50.921212)"
       gradientUnits="userSpaceOnUse" />
    <radialGradient
       inkscape:collect="always"
       xlink:href="#linearGradient3505"
       id="radialGradient2713"
       gradientUnits="userSpaceOnUse"
       gradientTransform="matrix(-4.7036838e-7,-1.3266515,1.4255675,0,-16.649451,50.921212)"
       cx="21.526428"
       cy="28.005011"
       fx="21.526428"
       fy="28.005011"
       r="17.237703" />
    <radialGradient
       inkscape:collect="always"
       xlink:href="#linearGradient3505"
       id="radialGradient2723"
       gradientUnits="userSpaceOnUse"
       gradientTransform="matrix(-4.7036838e-7,-1.3266515,1.4255675,0,-16.649451,50.921212)"
       cx="21.526428"
       cy="28.005011"
       fx="21.526428"
       fy="28.005011"
       r="17.237703" />
    <radialGradient
       inkscape:collect="always"
       xlink:href="#linearGradient3505"
       id="radialGradient2725"
       gradientUnits="userSpaceOnUse"
       gradientTransform="matrix(-4.7036838e-7,-1.3266515,1.4255675,0,-16.649451,50.921212)"
       cx="21.526428"
       cy="28.005011"
       fx="21.526428"
       fy="28.005011"
       r="17.237703" />
    <linearGradient
       inkscape:collect="always"
       xlink:href="#linearGradient3167"
       id="linearGradient3173"
       x1="-10.292396"
       y1="461.78082"
       x2="-10.757737"
       y2="446.14532"
       gradientUnits="userSpaceOnUse" />
  </defs>
  <sodipodi:namedview
     id="base"
     pagecolor="#ffffff"
     bordercolor="#666666"
     borderopacity="1.0"
     inkscape:pageopacity="0.0"
     inkscape:pageshadow="2"
     inkscape:zoom="7.719249"
     inkscape:cx="-28.299656"
     inkscape:cy="18.578696"
     inkscape:current-layer="layer1"
     showgrid="true"
     inkscape:grid-bbox="true"
     inkscape:document-units="px"
     inkscape:window-width="1280"
     inkscape:window-height="749"
     inkscape:window-x="0"
     inkscape:window-y="26" />
  <metadata
     id="metadata2391">
    <rdf:RDF>
      <cc:Work
         rdf:about="">
        <dc:format>image/svg+xml</dc:format>
        <dc:type
           rdf:resource="http://purl.org/dc/dcmitype/StillImage" />
      </cc:Work>
    </rdf:RDF>
  </metadata>
  <g
     id="layer1"
     inkscape:label="Layer 1"
     inkscape:groupmode="layer">
    <g
       id="g4492"
       transform="translate(4.0897376e-8,4.8750049e-5)">
      <path
         sodipodi:type="arc"
         style="fill:url(#linearGradient3187);fill-opacity:1;stroke:url(#linearGradient3189);stroke-width:0.65147787;stroke-linecap:butt;stroke-linejoin:round;stroke-miterlimit:4;stroke-dasharray:none;stroke-opacity:1"
         id="path3185"
         sodipodi:cx="-10.757737"
         sodipodi:cy="453.96307"
         sodipodi:rx="7.4919953"
         sodipodi:ry="7.4919953"
         d="M -3.2657418,453.96307 A 7.4919953,7.4919953 0 1 1 -18.249732,453.96307 A 7.4919953,7.4919953 0 1 1 -3.2657418,453.96307 z"
         transform="matrix(3.0699432,0,0,3.0699432,57.025642,-1369.6409)" />
      <path
         id="path3367"
         d="M 24,2.026795 C 14.32275,2.026795 6.12936,8.201895 3.1875,16.776795 C 8.751096,20.259055 16.007852,22.401795 24,22.401795 C 31.992148,22.401795 39.248904,20.259055 44.8125,16.776795 C 41.87064,8.201895 33.67725,2.026795 24,2.026795 z"
         style="opacity:0.3;fill:#ffffff;fill-opacity:1" />
      <path
         transform="matrix(0.8452149,0.5344266,-0.5344266,0.8452149,8.4127367,-21.442397)"
         d="M 43.714284,12.285714 A 7.7857141,4.1428571 0 1 1 28.142856,12.285714 A 7.7857141,4.1428571 0 1 1 43.714284,12.285714 z"
         sodipodi:ry="4.1428571"
         sodipodi:rx="7.7857141"
         sodipodi:cy="12.285714"
         sodipodi:cx="35.92857"
         id="path3965"
         style="opacity:0.3;fill:url(#linearGradient3973);fill-opacity:1;stroke:none;stroke-width:4;stroke-linecap:square;stroke-linejoin:miter;stroke-miterlimit:4;stroke-dasharray:none;stroke-opacity:0.3222749;filter:url(#filter4488)"
         sodipodi:type="arc" />
    </g>
    <path
       sodipodi:type="arc"
       style="fill:none;fill-opacity:1;stroke:#ffffff;stroke-width:1.40335619;stroke-linecap:butt;stroke-linejoin:round;stroke-miterlimit:4;stroke-dasharray:none;stroke-opacity:1"
       id="path2497"
       sodipodi:cx="-10.757737"
       sodipodi:cy="453.96307"
       sodipodi:rx="7.4919953"
       sodipodi:ry="7.4919953"
       d="M -3.2657418,453.96307 A 7.4919953,7.4919953 0 1 1 -18.249732,453.96307 A 7.4919953,7.4919953 0 1 1 -3.2657418,453.96307 z"
       transform="matrix(2.1377352,0,0,2.1377295,46.997193,-946.45025)" />
    <path
       transform="matrix(0.3757318,0,0,0.3757318,3.7857908,14.125927)"
       d="M 23.626404,24.980598 A 2.6614726,2.6614726 0 1 1 18.303459,24.980598 A 2.6614726,2.6614726 0 1 1 23.626404,24.980598 z"
       sodipodi:ry="2.6614726"
       sodipodi:rx="2.6614726"
       sodipodi:cy="24.980598"
       sodipodi:cx="20.964931"
       id="path2503"
       style="fill:#ffffff;fill-opacity:1;stroke:none;stroke-width:3;stroke-miterlimit:4;stroke-dasharray:none;stroke-opacity:1"
       sodipodi:type="arc" />
    <path
       sodipodi:type="arc"
       style="fill:#ffffff;fill-opacity:1;stroke:none;stroke-width:3;stroke-miterlimit:4;stroke-dasharray:none;stroke-opacity:1"
       id="path2505"
       sodipodi:cx="20.964931"
       sodipodi:cy="24.980598"
       sodipodi:rx="2.6614726"
       sodipodi:ry="2.6614726"
       d="M 23.626404,24.980598 A 2.6614726,2.6614726 0 1 1 18.303459,24.980598 A 2.6614726,2.6614726 0 1 1 23.626404,24.980598 z"
       transform="matrix(0.3757318,0,0,0.3757318,28.78579,14.125927)" />
    <path
       transform="matrix(0.3757318,0,0,0.3757318,16.122809,27.080555)"
       d="M 23.626404,24.980598 A 2.6614726,2.6614726 0 1 1 18.303459,24.980598 A 2.6614726,2.6614726 0 1 1 23.626404,24.980598 z"
       sodipodi:ry="2.6614726"
       sodipodi:rx="2.6614726"
       sodipodi:cy="24.980598"
       sodipodi:cx="20.964931"
       id="path2507"
       style="fill:#ffffff;fill-opacity:1;stroke:none;stroke-width:3;stroke-miterlimit:4;stroke-dasharray:none;stroke-opacity:1"
       sodipodi:type="arc" />
    <path
       sodipodi:type="arc"
       style="fill:#ffffff;fill-opacity:1;stroke:none;stroke-width:3;stroke-miterlimit:4;stroke-dasharray:none;stroke-opacity:1"
       id="path2509"
       sodipodi:cx="20.964931"
       sodipodi:cy="24.980598"
       sodipodi:rx="2.6614726"
       sodipodi:ry="2.6614726"
       d="M 23.626404,24.980598 A 2.6614726,2.6614726 0 1 1 18.303459,24.980598 A 2.6614726,2.6614726 0 1 1 23.626404,24.980598 z"
       transform="matrix(0.3757318,0,0,0.3757318,16.122809,2.0805554)" />
    <path
       transform="matrix(0.3757318,0,0,0.3757318,22.511448,3.7282868)"
       d="M 23.626404,24.980598 A 2.6614726,2.6614726 0 1 1 18.303459,24.980598 A 2.6614726,2.6614726 0 1 1 23.626404,24.980598 z"
       sodipodi:ry="2.6614726"
       sodipodi:rx="2.6614726"
       sodipodi:cy="24.980598"
       sodipodi:cx="20.964931"
       id="path2511"
       style="fill:#ffffff;fill-opacity:1;stroke:none;stroke-width:3;stroke-miterlimit:4;stroke-dasharray:none;stroke-opacity:1"
       sodipodi:type="arc" />
    <path
       sodipodi:type="arc"
       style="fill:#ffffff;fill-opacity:1;stroke:none;stroke-width:3;stroke-miterlimit:4;stroke-dasharray:none;stroke-opacity:1"
       id="path2513"
       sodipodi:cx="20.964931"
       sodipodi:cy="24.980598"
       sodipodi:rx="2.6614726"
       sodipodi:ry="2.6614726"
       d="M 23.626404,24.980598 A 2.6614726,2.6614726 0 1 1 18.303459,24.980598 A 2.6614726,2.6614726 0 1 1 23.626404,24.980598 z"
       transform="matrix(0.3757318,0,0,0.3757318,9.7341706,3.4691942)" />
    <path
       sodipodi:type="arc"
       style="fill:#ffffff;fill-opacity:1;stroke:none;stroke-width:3;stroke-miterlimit:4;stroke-dasharray:none;stroke-opacity:1"
       id="path2515"
       sodipodi:cx="20.964931"
       sodipodi:cy="24.980598"
       sodipodi:rx="2.6614726"
       sodipodi:ry="2.6614726"
       d="M 23.626404,24.980598 A 2.6614726,2.6614726 0 1 1 18.303459,24.980598 A 2.6614726,2.6614726 0 1 1 23.626404,24.980598 z"
       transform="matrix(0.3757318,0,0,0.3757318,26.656929,7.8737678)" />
    <path
       transform="matrix(0.3757318,0,0,0.3757318,5.8477822,7.6146752)"
       d="M 23.626404,24.980598 A 2.6614726,2.6614726 0 1 1 18.303459,24.980598 A 2.6614726,2.6614726 0 1 1 23.626404,24.980598 z"
       sodipodi:ry="2.6614726"
       sodipodi:rx="2.6614726"
       sodipodi:cy="24.980598"
       sodipodi:cx="20.964931"
       id="path2517"
       style="fill:#ffffff;fill-opacity:1;stroke:none;stroke-width:3;stroke-miterlimit:4;stroke-dasharray:none;stroke-opacity:1"
       sodipodi:type="arc" />
    <path
       sodipodi:type="arc"
       style="fill:#ffffff;fill-opacity:1;stroke:none;stroke-width:3;stroke-miterlimit:4;stroke-dasharray:none;stroke-opacity:1"
       id="path2519"
       sodipodi:cx="20.964931"
       sodipodi:cy="24.980598"
       sodipodi:rx="2.6614726"
       sodipodi:ry="2.6614726"
       d="M 23.626404,24.980598 A 2.6614726,2.6614726 0 1 1 18.303459,24.980598 A 2.6614726,2.6614726 0 1 1 23.626404,24.980598 z"
       transform="matrix(0.3757318,0,0,0.3757318,5.0705045,20.837397)" />
    <path
       transform="matrix(0.3757318,0,0,0.3757318,27.434207,20.837397)"
       d="M 23.626404,24.980598 A 2.6614726,2.6614726 0 1 1 18.303459,24.980598 A 2.6614726,2.6614726 0 1 1 23.626404,24.980598 z"
       sodipodi:ry="2.6614726"
       sodipodi:rx="2.6614726"
       sodipodi:cy="24.980598"
       sodipodi:cx="20.964931"
       id="path2521"
       style="fill:#ffffff;fill-opacity:1;stroke:none;stroke-width:3;stroke-miterlimit:4;stroke-dasharray:none;stroke-opacity:1"
       sodipodi:type="arc" />
    <path
       transform="matrix(0.3757318,0,0,0.3757318,9.6046243,25.112424)"
       d="M 23.626404,24.980598 A 2.6614726,2.6614726 0 1 1 18.303459,24.980598 A 2.6614726,2.6614726 0 1 1 23.626404,24.980598 z"
       sodipodi:ry="2.6614726"
       sodipodi:rx="2.6614726"
       sodipodi:cy="24.980598"
       sodipodi:cx="20.964931"
       id="path2523"
       style="fill:#ffffff;fill-opacity:1;stroke:none;stroke-width:3;stroke-miterlimit:4;stroke-dasharray:none;stroke-opacity:1"
       sodipodi:type="arc" />
    <path
       sodipodi:type="arc"
       style="fill:#ffffff;fill-opacity:1;stroke:none;stroke-width:3;stroke-miterlimit:4;stroke-dasharray:none;stroke-opacity:1"
       id="path2525"
       sodipodi:cx="20.964931"
       sodipodi:cy="24.980598"
       sodipodi:rx="2.6614726"
       sodipodi:ry="2.6614726"
       d="M 23.626404,24.980598 A 2.6614726,2.6614726 0 1 1 18.303459,24.980598 A 2.6614726,2.6614726 0 1 1 23.626404,24.980598 z"
       transform="matrix(0.3757318,0,0,0.3757318,23.15918,25.112424)" />
    <path
       sodipodi:type="star"
       style="fill:#ffffff;fill-opacity:1;stroke:none;stroke-width:3.99642706;stroke-linecap:square;stroke-linejoin:miter;stroke-miterlimit:4;stroke-dasharray:none;stroke-opacity:0.3222749"
       id="path3399"
       sodipodi:sides="3"
       sodipodi:cx="-31.609293"
       sodipodi:cy="20.79528"
       sodipodi:r1="17.109921"
       sodipodi:r2="8.5549603"
       sodipodi:arg1="0.55859932"
       sodipodi:arg2="1.6057969"
       inkscape:flatsided="false"
       inkscape:rounded="0"
       inkscape:randomized="0"
       d="M -17.100109,29.86352 L -31.90866,29.345001 L -46.717211,28.826482 L -38.863885,16.26116 L -31.010559,3.695839 L -24.055334,16.77968 L -17.100109,29.86352 z"
       transform="matrix(8.6954589e-2,-1.5361065e-2,6.1741244e-3,0.4815352,26.797169,9.2458058)" />
    <path
       sodipodi:type="arc"
       style="fill:#ffffff;fill-opacity:1;stroke:none;stroke-width:2;stroke-linecap:square;stroke-linejoin:miter;stroke-miterlimit:4;stroke-dasharray:none;stroke-opacity:0.3222749"
       id="path3403"
       sodipodi:cx="21.24559"
       sodipodi:cy="2.399709"
       sodipodi:rx="1.4250091"
       sodipodi:ry="1.4250091"
       d="M 22.670599,2.399709 A 1.4250091,1.4250091 0 1 1 19.820581,2.399709 A 1.4250091,1.4250091 0 1 1 22.670599,2.399709 z"
       transform="matrix(1.0297123,0,0,1.0297123,2.0976985,21.679841)" />
    <path
       transform="matrix(-5.5710488e-2,-6.7801013e-2,0.2998688,-0.1921038,13.295634,27.403336)"
       d="M -17.100109,29.86352 L -31.90866,29.345001 L -46.717211,28.826482 L -38.863885,16.26116 L -31.010559,3.695839 L -24.055334,16.77968 L -17.100109,29.86352 z"
       inkscape:randomized="0"
       inkscape:rounded="0"
       inkscape:flatsided="false"
       sodipodi:arg2="1.6057969"
       sodipodi:arg1="0.55859932"
       sodipodi:r2="8.5549603"
       sodipodi:r1="17.109921"
       sodipodi:cy="20.79528"
       sodipodi:cx="-31.609293"
       sodipodi:sides="3"
       id="path3405"
       style="fill:#ffffff;fill-opacity:1;stroke:none;stroke-width:3.99642706;stroke-linecap:square;stroke-linejoin:miter;stroke-miterlimit:4;stroke-dasharray:none;stroke-opacity:0.3222749"
       sodipodi:type="star"
       inkscape:transform-center-x="3.5499403"
       inkscape:transform-center-y="1.8900013" />
  </g>
</svg>
