<?xml version="1.0" encoding="UTF-8" standalone="no"?>
<!-- Created with Inkscape (http://www.inkscape.org/) -->
<svg
   xmlns:dc="http://purl.org/dc/elements/1.1/"
   xmlns:cc="http://creativecommons.org/ns#"
   xmlns:rdf="http://www.w3.org/1999/02/22-rdf-syntax-ns#"
   xmlns:svg="http://www.w3.org/2000/svg"
   xmlns="http://www.w3.org/2000/svg"
   xmlns:xlink="http://www.w3.org/1999/xlink"
   xmlns:sodipodi="http://sodipodi.sourceforge.net/DTD/sodipodi-0.dtd"
   xmlns:inkscape="http://www.inkscape.org/namespaces/inkscape"
   width="48px"
   height="48px"
   id="svg3406"
   sodipodi:version="0.32"
   inkscape:version="0.46"
   sodipodi:docname="keyboard.svg"
   inkscape:output_extension="org.inkscape.output.svg.inkscape">
  <defs
     id="defs3408">
    <filter
       inkscape:collect="always"
       id="filter4488">
      <feGaussianBlur
         inkscape:collect="always"
         stdDeviation="0.12425812"
         id="feGaussianBlur4490" />
    </filter>
    <linearGradient
       inkscape:collect="always"
       id="linearGradient3967">
      <stop
         style="stop-color:#ffffff;stop-opacity:1;"
         offset="0"
         id="stop3969" />
      <stop
         style="stop-color:#ffffff;stop-opacity:0;"
         offset="1"
         id="stop3971" />
    </linearGradient>
    <linearGradient
       inkscape:collect="always"
       xlink:href="#linearGradient3967"
       id="linearGradient3973"
       x1="36.639923"
       y1="10.711333"
       x2="35.581474"
       y2="16.066296"
       gradientUnits="userSpaceOnUse" />
    <linearGradient
       id="linearGradient3167">
      <stop
         style="stop-color:#035b95;stop-opacity:1"
         offset="0"
         id="stop3169" />
      <stop
         style="stop-color:#62b1d7;stop-opacity:1;"
         offset="1"
         id="stop3171" />
    </linearGradient>
    <linearGradient
       inkscape:collect="always"
       xlink:href="#linearGradient3167"
       id="linearGradient3189"
       gradientUnits="userSpaceOnUse"
       x1="-10.292396"
       y1="461.78082"
       x2="-10.757737"
       y2="446.14532" />
    <linearGradient
       inkscape:collect="always"
       id="linearGradient3177">
      <stop
         style="stop-color:#00405b;stop-opacity:1"
         offset="0"
         id="stop3179" />
      <stop
         style="stop-color:#019bdb;stop-opacity:1"
         offset="1"
         id="stop3181" />
    </linearGradient>
    <linearGradient
       inkscape:collect="always"
       xlink:href="#linearGradient3177"
       id="linearGradient3187"
       gradientUnits="userSpaceOnUse"
       x1="-13.084444"
       y1="461.78082"
       x2="-13.084444"
       y2="455.85181" />
    <inkscape:perspective
       sodipodi:type="inkscape:persp3d"
       inkscape:vp_x="0 : 24 : 1"
       inkscape:vp_y="0 : 1000 : 0"
       inkscape:vp_z="48 : 24 : 1"
       inkscape:persp3d-origin="24 : 16 : 1"
       id="perspective3414" />
  </defs>
  <sodipodi:namedview
     id="base"
     pagecolor="#ffffff"
     bordercolor="#666666"
     borderopacity="1.0"
     inkscape:pageopacity="0.0"
     inkscape:pageshadow="2"
     inkscape:zoom="7"
     inkscape:cx="3.3305503"
     inkscape:cy="35.428571"
     inkscape:current-layer="layer1"
     showgrid="true"
     inkscape:grid-bbox="true"
     inkscape:document-units="px"
     inkscape:window-width="1280"
     inkscape:window-height="749"
     inkscape:window-x="0"
     inkscape:window-y="26" />
  <metadata
     id="metadata3411">
    <rdf:RDF>
      <cc:Work
         rdf:about="">
        <dc:format>image/svg+xml</dc:format>
        <dc:type
           rdf:resource="http://purl.org/dc/dcmitype/StillImage" />
      </cc:Work>
    </rdf:RDF>
  </metadata>
  <g
     id="layer1"
     inkscape:label="Layer 1"
     inkscape:groupmode="layer">
    <g
       id="g4492"
       transform="translate(4.0897369e-8,4.8750049e-5)">
      <path
         sodipodi:type="arc"
         style="fill:url(#linearGradient3187);fill-opacity:1;stroke:url(#linearGradient3189);stroke-width:0.65147787;stroke-linecap:butt;stroke-linejoin:round;stroke-miterlimit:4;stroke-dasharray:none;stroke-opacity:1"
         id="path3185"
         sodipodi:cx="-10.757737"
         sodipodi:cy="453.96307"
         sodipodi:rx="7.4919953"
         sodipodi:ry="7.4919953"
         d="M -3.2657418,453.96307 A 7.4919953,7.4919953 0 1 1 -18.249732,453.96307 A 7.4919953,7.4919953 0 1 1 -3.2657418,453.96307 z"
         transform="matrix(3.0699432,0,0,3.0699432,57.025642,-1369.6409)" />
      <path
         id="path3367"
         d="M 24,2.026795 C 14.32275,2.026795 6.12936,8.201895 3.1875,16.776795 C 8.751096,20.259055 16.007852,22.401795 24,22.401795 C 31.992148,22.401795 39.248904,20.259055 44.8125,16.776795 C 41.87064,8.201895 33.67725,2.026795 24,2.026795 z"
         style="opacity:0.3;fill:#ffffff;fill-opacity:1" />
      <path
         transform="matrix(0.8452149,0.5344266,-0.5344266,0.8452149,8.4127367,-21.442397)"
         d="M 43.714284,12.285714 A 7.7857141,4.1428571 0 1 1 28.142856,12.285714 A 7.7857141,4.1428571 0 1 1 43.714284,12.285714 z"
         sodipodi:ry="4.1428571"
         sodipodi:rx="7.7857141"
         sodipodi:cy="12.285714"
         sodipodi:cx="35.92857"
         id="path3965"
         style="opacity:0.3;fill:url(#linearGradient3973);fill-opacity:1;stroke:none;stroke-width:4;stroke-linecap:square;stroke-linejoin:miter;stroke-miterlimit:4;stroke-dasharray:none;stroke-opacity:0.3222749;filter:url(#filter4488)"
         sodipodi:type="arc" />
    </g>
    <path
       style="fill:#ffffff;fill-opacity:1;stroke:none;stroke-width:2;stroke-linecap:round;stroke-linejoin:miter;stroke-miterlimit:4;stroke-dasharray:none;stroke-opacity:1"
       d="M 6.375 14.3125 L 6.375 33.6875 L 41.625 33.6875 L 41.625 14.3125 L 6.375 14.3125 z M 9.25 17.0625 L 11.46875 17.0625 C 11.778298 17.0625 12.03125 17.315452 12.03125 17.625 L 12.03125 19.84375 C 12.03125 20.153298 11.778298 20.40625 11.46875 20.40625 L 9.25 20.40625 C 8.9404518 20.40625 8.6875 20.153298 8.6875 19.84375 L 8.6875 17.625 C 8.6875 17.315453 8.940452 17.0625 9.25 17.0625 z M 13.90625 17.0625 L 16.125 17.0625 C 16.434548 17.0625 16.6875 17.315452 16.6875 17.625 L 16.6875 19.84375 C 16.687499 20.153298 16.434548 20.40625 16.125 20.40625 L 13.90625 20.40625 C 13.596702 20.40625 13.34375 20.153298 13.34375 19.84375 L 13.34375 17.625 C 13.34375 17.315453 13.596702 17.0625 13.90625 17.0625 z M 18.5625 17.0625 L 20.78125 17.0625 C 21.090798 17.0625 21.34375 17.315452 21.34375 17.625 L 21.34375 19.84375 C 21.34375 20.153298 21.090798 20.40625 20.78125 20.40625 L 18.5625 20.40625 C 18.252953 20.40625 18 20.153298 18 19.84375 L 18 17.625 C 18 17.315453 18.252952 17.0625 18.5625 17.0625 z M 23.21875 17.0625 L 25.4375 17.0625 C 25.747048 17.0625 26 17.315452 26 17.625 L 26 19.84375 C 26 20.153298 25.747048 20.40625 25.4375 20.40625 L 23.21875 20.40625 C 22.909203 20.40625 22.65625 20.153298 22.65625 19.84375 L 22.65625 17.625 C 22.65625 17.315453 22.909202 17.0625 23.21875 17.0625 z M 27.875 17.0625 L 30.09375 17.0625 C 30.403298 17.0625 30.65625 17.315452 30.65625 17.625 L 30.65625 19.84375 C 30.65625 20.153298 30.403298 20.40625 30.09375 20.40625 L 27.875 20.40625 C 27.565453 20.40625 27.3125 20.153298 27.3125 19.84375 L 27.3125 17.625 C 27.3125 17.315453 27.565452 17.0625 27.875 17.0625 z M 32.53125 17.0625 L 34.75 17.0625 C 35.059549 17.0625 35.3125 17.315452 35.3125 17.625 L 35.3125 19.84375 C 35.312498 20.153298 35.059548 20.40625 34.75 20.40625 L 32.53125 20.40625 C 32.221701 20.40625 31.96875 20.153298 31.96875 19.84375 L 31.96875 17.625 C 31.96875 17.315453 32.221702 17.0625 32.53125 17.0625 z M 37.1875 17.0625 L 39.40625 17.0625 C 39.715798 17.0625 39.96875 17.315452 39.96875 17.625 L 39.96875 19.84375 C 39.96875 20.153298 39.715798 20.40625 39.40625 20.40625 L 37.1875 20.40625 C 36.877953 20.40625 36.625 20.153298 36.625 19.84375 L 36.625 17.625 C 36.625 17.315453 36.877952 17.0625 37.1875 17.0625 z M 11.09375 22.4375 L 13.34375 22.4375 C 13.653298 22.4375 13.90625 22.690452 13.90625 23 L 13.90625 25.25 C 13.90625 25.559548 13.653298 25.8125 13.34375 25.8125 L 11.09375 25.8125 C 10.784202 25.8125 10.53125 25.559548 10.53125 25.25 L 10.53125 23 C 10.53125 22.690453 10.784202 22.4375 11.09375 22.4375 z M 15.75 22.4375 L 18 22.4375 C 18.309548 22.4375 18.5625 22.690452 18.5625 23 L 18.5625 25.25 C 18.5625 25.559548 18.309548 25.8125 18 25.8125 L 15.75 25.8125 C 15.440452 25.8125 15.1875 25.559548 15.1875 25.25 L 15.1875 23 C 15.1875 22.690453 15.440452 22.4375 15.75 22.4375 z M 20.40625 22.4375 L 22.65625 22.4375 C 22.965798 22.4375 23.21875 22.690452 23.21875 23 L 23.21875 25.25 C 23.21875 25.559548 22.965798 25.8125 22.65625 25.8125 L 20.40625 25.8125 C 20.096703 25.8125 19.84375 25.559548 19.84375 25.25 L 19.84375 23 C 19.84375 22.690453 20.096702 22.4375 20.40625 22.4375 z M 25.0625 22.4375 L 27.3125 22.4375 C 27.622048 22.4375 27.875 22.690452 27.875 23 L 27.875 25.25 C 27.875 25.559548 27.622048 25.8125 27.3125 25.8125 L 25.0625 25.8125 C 24.752953 25.8125 24.5 25.559548 24.5 25.25 L 24.5 23 C 24.5 22.690453 24.752952 22.4375 25.0625 22.4375 z M 29.71875 22.4375 L 31.96875 22.4375 C 32.278298 22.4375 32.53125 22.690452 32.53125 23 L 32.53125 25.25 C 32.531248 25.559548 32.278298 25.8125 31.96875 25.8125 L 29.71875 25.8125 C 29.409203 25.8125 29.15625 25.559548 29.15625 25.25 L 29.15625 23 C 29.15625 22.690453 29.409202 22.4375 29.71875 22.4375 z M 34.375 22.4375 L 39 22.4375 C 39.309548 22.4375 39.5625 22.690452 39.5625 23 L 39.5625 25.25 C 39.562501 25.559548 39.309548 25.8125 39 25.8125 L 34.375 25.8125 C 34.065453 25.8125 33.8125 25.559548 33.8125 25.25 L 33.8125 23 C 33.8125 22.690453 34.065452 22.4375 34.375 22.4375 z M 9.09375 27.78125 L 12.125 27.78125 C 12.434548 27.78125 12.6875 28.034202 12.6875 28.34375 L 12.6875 30.5625 C 12.6875 30.872048 12.434548 31.125 12.125 31.125 L 9.09375 31.125 C 8.7842018 31.125 8.53125 30.872048 8.53125 30.5625 L 8.53125 28.34375 C 8.53125 28.034203 8.784202 27.78125 9.09375 27.78125 z M 36.125 27.78125 L 39.125 27.78125 C 39.434549 27.78125 39.6875 28.034202 39.6875 28.34375 L 39.6875 30.5625 C 39.687498 30.872048 39.434548 31.125 39.125 31.125 L 36.125 31.125 C 35.815453 31.125 35.5625 30.872048 35.5625 30.5625 L 35.5625 28.34375 C 35.5625 28.034203 35.815452 27.78125 36.125 27.78125 z M 14.625 27.90625 L 33.65625 27.90625 C 33.965799 27.90625 34.21875 28.159202 34.21875 28.46875 L 34.21875 30.6875 C 34.218748 30.997048 33.965798 31.25 33.65625 31.25 L 14.625 31.25 C 14.315452 31.25 14.0625 30.997048 14.0625 30.6875 L 14.0625 28.46875 C 14.0625 28.159203 14.315452 27.90625 14.625 27.90625 z "
       id="rect2401" />
  </g>
</svg>
