<?xml version="1.0" encoding="UTF-8" standalone="no"?>
<!-- Created with Inkscape (http://www.inkscape.org/) -->
<svg
   xmlns:dc="http://purl.org/dc/elements/1.1/"
   xmlns:cc="http://creativecommons.org/ns#"
   xmlns:rdf="http://www.w3.org/1999/02/22-rdf-syntax-ns#"
   xmlns:svg="http://www.w3.org/2000/svg"
   xmlns="http://www.w3.org/2000/svg"
   xmlns:xlink="http://www.w3.org/1999/xlink"
   xmlns:sodipodi="http://sodipodi.sourceforge.net/DTD/sodipodi-0.dtd"
   xmlns:inkscape="http://www.inkscape.org/namespaces/inkscape"
   width="48px"
   height="48px"
   id="svg3272"
   sodipodi:version="0.32"
   inkscape:version="0.46"
   sodipodi:docname="gnomedo.svg"
   inkscape:output_extension="org.inkscape.output.svg.inkscape"
   inkscape:export-filename="/home/daz/Pictures/icons/icicl/png/settings.png"
   inkscape:export-xdpi="90"
   inkscape:export-ydpi="90">
  <defs
     id="defs3274">
    <linearGradient
       id="linearGradient3592">
      <stop
         style="stop-color:#ffffff;stop-opacity:1;"
         offset="0"
         id="stop3594" />
      <stop
         style="stop-color:#ffffff;stop-opacity:0;"
         offset="1"
         id="stop3596" />
    </linearGradient>
    <linearGradient
       id="linearGradient3456">
      <stop
         style="stop-color:#ffffff;stop-opacity:1;"
         offset="0"
         id="stop3458" />
      <stop
         style="stop-color:#ffffff;stop-opacity:0;"
         offset="1"
         id="stop3460" />
    </linearGradient>
    <filter
       inkscape:collect="always"
       id="filter4488">
      <feGaussianBlur
         inkscape:collect="always"
         stdDeviation="0.12425812"
         id="feGaussianBlur4490" />
    </filter>
    <linearGradient
       inkscape:collect="always"
       id="linearGradient3967">
      <stop
         style="stop-color:#ffffff;stop-opacity:1;"
         offset="0"
         id="stop3969" />
      <stop
         style="stop-color:#ffffff;stop-opacity:0;"
         offset="1"
         id="stop3971" />
    </linearGradient>
    <linearGradient
       inkscape:collect="always"
       xlink:href="#linearGradient3967"
       id="linearGradient3973"
       x1="36.639923"
       y1="10.711333"
       x2="35.581474"
       y2="16.066296"
       gradientUnits="userSpaceOnUse" />
    <linearGradient
       inkscape:collect="always"
       xlink:href="#linearGradient3167"
       id="linearGradient3189"
       gradientUnits="userSpaceOnUse"
       x1="-10.292396"
       y1="461.78082"
       x2="-10.757737"
       y2="446.14532" />
    <linearGradient
       id="linearGradient3177">
      <stop
         style="stop-color:#004419;stop-opacity:1;"
         offset="0"
         id="stop3179" />
      <stop
         style="stop-color:#13ff8e;stop-opacity:1;"
         offset="1"
         id="stop3181" />
    </linearGradient>
    <linearGradient
       inkscape:collect="always"
       xlink:href="#linearGradient3177"
       id="linearGradient3187"
       gradientUnits="userSpaceOnUse"
       x1="-13.084444"
       y1="461.78082"
       x2="-13.084444"
       y2="455.85181" />
    <linearGradient
       id="linearGradient3167">
      <stop
         style="stop-color:#015c35;stop-opacity:1;"
         offset="0"
         id="stop3169" />
      <stop
         style="stop-color:#35cc93;stop-opacity:1;"
         offset="1"
         id="stop3171" />
    </linearGradient>
    <linearGradient
       inkscape:collect="always"
       xlink:href="#linearGradient3167"
       id="linearGradient3173"
       x1="-10.292396"
       y1="461.78082"
       x2="-10.757737"
       y2="446.14532"
       gradientUnits="userSpaceOnUse" />
    <linearGradient
       inkscape:collect="always"
       xlink:href="#linearGradient3593"
       id="linearGradient3780"
       x1="-10.470651"
       y1="446.16394"
       x2="-10.374956"
       y2="461.2359"
       gradientUnits="userSpaceOnUse" />
    <linearGradient
       inkscape:collect="always"
       id="linearGradient3593">
      <stop
         style="stop-color:#3ab1d5;stop-opacity:1;"
         offset="0"
         id="stop3595" />
      <stop
         style="stop-color:#287a93;stop-opacity:1"
         offset="1"
         id="stop3597" />
    </linearGradient>
    <inkscape:perspective
       sodipodi:type="inkscape:persp3d"
       inkscape:vp_x="0 : 24 : 1"
       inkscape:vp_y="0 : 1000 : 0"
       inkscape:vp_z="48 : 24 : 1"
       inkscape:persp3d-origin="24 : 16 : 1"
       id="perspective3280" />
    <linearGradient
       inkscape:collect="always"
       xlink:href="#linearGradient3177"
       id="linearGradient2734"
       gradientUnits="userSpaceOnUse"
       x1="-13.084444"
       y1="461.78082"
       x2="-13.084444"
       y2="455.85181" />
    <linearGradient
       inkscape:collect="always"
       xlink:href="#linearGradient3167"
       id="linearGradient2736"
       gradientUnits="userSpaceOnUse"
       x1="-10.292396"
       y1="461.78082"
       x2="-10.757737"
       y2="446.14532" />
    <linearGradient
       inkscape:collect="always"
       xlink:href="#linearGradient3967"
       id="linearGradient2738"
       gradientUnits="userSpaceOnUse"
       x1="36.639923"
       y1="10.711333"
       x2="35.581474"
       y2="16.066296" />
    <radialGradient
       inkscape:collect="always"
       xlink:href="#linearGradient3592"
       id="radialGradient3001"
       gradientUnits="userSpaceOnUse"
       gradientTransform="matrix(6.694897e-2,1.334814e-2,-1.334885e-2,6.695254e-2,-25.65642,-37.578235)"
       cx="889.71872"
       cy="742.35938"
       fx="889.71872"
       fy="742.35938"
       r="293.68748" />
  </defs>
  <sodipodi:namedview
     id="base"
     pagecolor="#ffffff"
     bordercolor="#666666"
     borderopacity="1.0"
     inkscape:pageopacity="0.0"
     inkscape:pageshadow="2"
     inkscape:zoom="11.166667"
     inkscape:cx="19.119403"
     inkscape:cy="24"
     inkscape:current-layer="layer1"
     showgrid="true"
     inkscape:grid-bbox="true"
     inkscape:document-units="px"
     inkscape:window-width="1280"
     inkscape:window-height="749"
     inkscape:window-x="0"
     inkscape:window-y="26" />
  <metadata
     id="metadata3277">
    <rdf:RDF>
      <cc:Work
         rdf:about="">
        <dc:format>image/svg+xml</dc:format>
        <dc:type
           rdf:resource="http://purl.org/dc/dcmitype/StillImage" />
      </cc:Work>
    </rdf:RDF>
  </metadata>
  <g
     id="layer1"
     inkscape:label="Layer 1"
     inkscape:groupmode="layer">
    <path
       transform="matrix(3.0699432,0,0,3.0699432,57.025642,-1369.6409)"
       d="M -3.2657418,453.96307 A 7.4919953,7.4919953 0 1 1 -18.249732,453.96307 A 7.4919953,7.4919953 0 1 1 -3.2657418,453.96307 z"
       sodipodi:ry="7.4919953"
       sodipodi:rx="7.4919953"
       sodipodi:cy="453.96307"
       sodipodi:cx="-10.757737"
       id="path3185"
       style="fill:url(#linearGradient3187);fill-opacity:1.0;stroke:url(#linearGradient3189);stroke-width:0.65147787000000001;stroke-linecap:butt;stroke-linejoin:round;stroke-miterlimit:4;stroke-dasharray:none;stroke-opacity:1"
       sodipodi:type="arc" />
    <path
       style="fill:url(#radialGradient3001);fill-opacity:1;stroke:none;stroke-width:2.77790666;stroke-linecap:square;stroke-linejoin:miter;stroke-miterlimit:4;stroke-opacity:1"
       d="M 23.10613,4.0010648 L 20.20693,4.2592048 L 22.8864,18.204805 C 23.16339,18.151845 23.44837,18.119375 23.7376,18.106665 L 23.10613,4.0010648 z M 26.49387,4.0522648 L 24.73173,18.145065 C 25.01879,18.180635 25.29948,18.238275 25.57227,18.313605 L 29.3312,4.7050648 L 26.49387,4.0522648 z M 16.96853,5.2554648 L 14.2912,6.3968048 L 21.14987,18.834135 C 21.39908,18.696275 21.65896,18.576915 21.92853,18.475735 L 16.96853,5.2554648 z M 32.53547,5.8016048 L 26.50453,18.657065 C 26.76394,18.778935 27.01194,18.920465 27.24907,19.077335 L 35.03147,7.2949348 L 32.53547,5.8016048 z M 11.52213,8.3466648 L 9.3290704,10.258134 L 19.69493,19.969065 C 19.89042,19.760395 20.10054,19.567355 20.32427,19.388805 L 11.52213,8.3466648 z M 37.7408,9.3301348 L 28.02987,19.696005 C 28.23813,19.891105 28.434,20.099965 28.61226,20.323205 L 39.6544,11.523205 L 37.7408,9.3301348 z M 7.2960004,12.969605 L 5.7984004,15.465605 L 18.656,21.496535 C 18.77848,21.235785 18.92056,20.985975 19.0784,20.747735 L 7.2960004,12.969605 z M 41.60213,14.294405 L 29.1648,21.148805 C 29.30312,21.398625 29.42388,21.659295 29.52533,21.929605 L 42.74346,16.971735 L 41.60213,14.294405 z M 4.7040004,18.672005 L 4.0533304,21.507205 L 18.144,23.269335 C 18.17954,22.982465 18.23515,22.701415 18.3104,22.428805 L 4.7040004,18.672005 z M 43.73973,20.208005 L 29.79414,22.885335 C 29.84745,23.163665 29.88173,23.447975 29.8944,23.738665 L 44,23.107205 L 43.73973,20.208005 z M 18.1056,24.263465 L 4.0000004,24.892805 L 4.2581304,27.792005 L 18.20373,25.114665 C 18.15066,24.837335 18.11833,24.553075 18.1056,24.263465 z M 29.85387,24.732805 C 29.8183,25.019705 29.76275,25.300685 29.68746,25.573335 L 43.296,29.330135 L 43.94666,26.494935 L 29.85387,24.732805 z M 18.47467,26.072535 L 5.2544004,31.030405 L 6.3957304,33.707735 L 18.83307,26.849065 C 18.6958,26.600735 18.57553,26.341075 18.47467,26.072535 z M 29.34187,26.505605 C 29.21975,26.765345 29.07882,27.014875 28.9216,27.252265 L 40.704,35.032535 L 42.19947,32.536535 L 29.34187,26.505605 z M 19.3856,27.674665 L 8.3456004,36.476805 L 10.25707,38.672005 L 19.968,28.304005 C 19.7593,28.108365 19.56414,27.898555 19.3856,27.674665 z M 28.30506,28.030935 C 28.10962,28.239595 27.89941,28.434785 27.67573,28.613335 L 36.47787,39.655465 L 38.67093,37.741865 L 28.30506,28.030935 z M 20.74667,28.922665 L 12.9664,40.705065 L 15.46453,42.200535 L 21.49547,29.342935 C 21.2348,29.220445 20.98482,29.080495 20.74667,28.922665 z M 26.85014,29.165865 C 26.60065,29.303895 26.33922,29.425135 26.06933,29.526405 L 31.0272,42.744535 L 33.70666,41.603205 L 26.85014,29.165865 z M 22.42773,29.688535 L 18.6688,43.297065 L 21.50613,43.947735 L 23.26827,29.854935 C 22.98139,29.819395 22.70035,29.763785 22.42773,29.688535 z M 25.1136,29.795205 C 24.83559,29.848405 24.55061,29.882815 24.26027,29.895465 L 24.89173,43.998935 L 27.79306,43.742935 L 25.1136,29.795205 z"
       id="path3608" />
    <path
       style="opacity:0.3;fill:#ffffff;fill-opacity:1"
       d="M 24,2.0268438 C 14.32275,2.0268438 6.12936,8.2019438 3.1875,16.776844 C 8.751096,20.259104 16.007852,22.401844 24,22.401844 C 31.992148,22.401844 39.248904,20.259104 44.8125,16.776844 C 41.87064,8.2019438 33.67725,2.0268438 24,2.0268438 z"
       id="path2621" />
    <path
       sodipodi:type="arc"
       style="opacity:0.3;fill:url(#linearGradient3973);fill-opacity:1;stroke:none;stroke-width:4;stroke-linecap:square;stroke-linejoin:miter;stroke-miterlimit:4;stroke-dasharray:none;stroke-opacity:0.3222749;filter:url(#filter4488)"
       id="path3965"
       sodipodi:cx="35.92857"
       sodipodi:cy="12.285714"
       sodipodi:rx="7.7857141"
       sodipodi:ry="4.1428571"
       d="M 43.714284,12.285714 A 7.7857141,4.1428571 0 1 1 28.142856,12.285714 A 7.7857141,4.1428571 0 1 1 43.714284,12.285714 z"
       transform="matrix(0.8452149,0.5344266,-0.5344266,0.8452149,8.4127367,-21.442348)" />
    <path
       style="fill:#ffffff;fill-opacity:1;stroke:none;stroke-width:2.09884429;stroke-miterlimit:4;stroke-dasharray:none;stroke-opacity:1"
       d="M 20.906706,8.7507552 C 20.705416,8.7750592 20.498218,8.8307932 20.245666,8.8985892 C 16.850044,9.8101192 19.706528,11.885837 18.730534,14.069045 C 17.757252,14.585779 16.875474,15.264851 16.098618,16.032295 C 13.903338,16.252425 12.82829,12.996647 11.084018,16.077045 C 9.409256,19.034691 12.286192,18.677443 13.29985,20.504535 C 12.922138,21.645977 12.752922,22.836267 12.764244,24.104977 C 12.765072,24.197943 12.763704,24.296415 12.766776,24.388823 C 11.299512,25.788963 8.66777,24.625605 9.486488,27.919133 C 10.315742,31.255061 12.12305,28.776155 14.088408,29.344717 C 14.67464,30.434221 15.44053,31.374217 16.337614,32.210637 C 16.550728,34.494997 13.422762,35.644665 16.384474,37.461775 C 19.470698,39.355277 18.747848,35.584857 21.092434,34.864951 C 21.976642,35.101211 22.885306,35.254611 23.840072,35.266233 C 26.007176,36.603433 24.249256,40.051633 27.753908,39.110835 C 31.168418,38.194235 28.291626,36.136693 29.31635,33.939959 C 30.267326,33.430461 31.091586,32.774657 31.854072,32.024859 C 34.050794,31.802385 35.170714,35.013789 36.915558,31.932379 C 38.590322,28.974735 35.666498,29.379711 34.65284,27.552619 C 35.030552,26.411179 35.246654,25.173159 35.235332,23.904449 C 35.234614,23.823761 35.235632,23.748181 35.233222,23.667911 C 36.700486,22.267773 39.33223,23.431127 38.513512,20.137599 C 37.677936,16.776259 35.846586,19.285181 33.86386,18.665129 C 33.289658,17.607549 32.530972,16.664275 31.662384,15.846095 C 31.44927,13.561735 34.577236,12.412069 31.615522,10.594957 C 28.515098,8.6927392 29.243712,12.449919 26.859834,13.144897 C 25.995906,12.916605 25.091086,12.804823 24.159926,12.790499 C 22.148982,11.549661 23.498684,8.4378212 20.906706,8.7507552 z M 23.983758,19.557591 C 26.43099,19.535753 28.401206,21.518009 28.423044,23.965241 C 28.444882,26.412475 26.510358,28.429575 24.063126,28.451413 C 21.61589,28.473251 19.59837,26.491419 19.576532,24.044185 C 19.554694,21.596953 21.536524,19.579429 23.983758,19.557591 z"
       id="path3240" />
  </g>
</svg>
