<?xml version="1.0" encoding="UTF-8" standalone="no"?>
<!-- Created with Inkscape (http://www.inkscape.org/) -->
<svg
   xmlns:dc="http://purl.org/dc/elements/1.1/"
   xmlns:cc="http://creativecommons.org/ns#"
   xmlns:rdf="http://www.w3.org/1999/02/22-rdf-syntax-ns#"
   xmlns:svg="http://www.w3.org/2000/svg"
   xmlns="http://www.w3.org/2000/svg"
   xmlns:xlink="http://www.w3.org/1999/xlink"
   xmlns:sodipodi="http://sodipodi.sourceforge.net/DTD/sodipodi-0.dtd"
   xmlns:inkscape="http://www.inkscape.org/namespaces/inkscape"
   width="48px"
   height="48px"
   id="svg2562"
   sodipodi:version="0.32"
   inkscape:version="0.46"
   sodipodi:docname="iphone.svg"
   inkscape:output_extension="org.inkscape.output.svg.inkscape"
   inkscape:export-filename="/home/daz/Pictures/icons/icicl/png/ipod.png"
   inkscape:export-xdpi="90"
   inkscape:export-ydpi="90">
  <defs
     id="defs2564">
    <filter
       inkscape:collect="always"
       id="filter4488">
      <feGaussianBlur
         inkscape:collect="always"
         stdDeviation="0.12425812"
         id="feGaussianBlur4490" />
    </filter>
    <linearGradient
       inkscape:collect="always"
       id="linearGradient3967">
      <stop
         style="stop-color:#ffffff;stop-opacity:1;"
         offset="0"
         id="stop3969" />
      <stop
         style="stop-color:#ffffff;stop-opacity:0;"
         offset="1"
         id="stop3971" />
    </linearGradient>
    <linearGradient
       inkscape:collect="always"
       xlink:href="#linearGradient3967"
       id="linearGradient3973"
       x1="36.639923"
       y1="10.711333"
       x2="35.581474"
       y2="16.066296"
       gradientUnits="userSpaceOnUse" />
    <linearGradient
       inkscape:collect="always"
       xlink:href="#linearGradient3167"
       id="linearGradient2786"
       gradientUnits="userSpaceOnUse"
       x1="-10.292396"
       y1="461.78082"
       x2="-10.757737"
       y2="446.14532" />
    <linearGradient
       inkscape:collect="always"
       id="linearGradient3177">
      <stop
         style="stop-color:#00405b;stop-opacity:1"
         offset="0"
         id="stop3179" />
      <stop
         style="stop-color:#019bdb;stop-opacity:1"
         offset="1"
         id="stop3181" />
    </linearGradient>
    <linearGradient
       inkscape:collect="always"
       xlink:href="#linearGradient3177"
       id="linearGradient2784"
       gradientUnits="userSpaceOnUse"
       x1="-13.084444"
       y1="461.78082"
       x2="-13.084444"
       y2="455.85181" />
    <linearGradient
       id="linearGradient3167">
      <stop
         style="stop-color:#035b95;stop-opacity:1"
         offset="0"
         id="stop3169" />
      <stop
         style="stop-color:#62b1d7;stop-opacity:1;"
         offset="1"
         id="stop3171" />
    </linearGradient>
    <linearGradient
       inkscape:collect="always"
       xlink:href="#linearGradient3167"
       id="linearGradient3173"
       x1="-10.292396"
       y1="461.78082"
       x2="-10.757737"
       y2="446.14532"
       gradientUnits="userSpaceOnUse" />
    <linearGradient
       inkscape:collect="always"
       id="linearGradient3593">
      <stop
         style="stop-color:#3ab1d5;stop-opacity:1;"
         offset="0"
         id="stop3595" />
      <stop
         style="stop-color:#287a93;stop-opacity:1"
         offset="1"
         id="stop3597" />
    </linearGradient>
    <linearGradient
       inkscape:collect="always"
       xlink:href="#linearGradient3593"
       id="linearGradient5078"
       gradientUnits="userSpaceOnUse"
       x1="-10.757737"
       y1="445.92471"
       x2="-10.757737"
       y2="462.00143" />
    <linearGradient
       inkscape:collect="always"
       xlink:href="#linearGradient3593"
       id="linearGradient4880"
       gradientUnits="userSpaceOnUse"
       x1="14.10076"
       y1="1.7549312"
       x2="13.830456"
       y2="19.159325" />
    <inkscape:perspective
       sodipodi:type="inkscape:persp3d"
       inkscape:vp_x="0 : 24 : 1"
       inkscape:vp_y="0 : 1000 : 0"
       inkscape:vp_z="48 : 24 : 1"
       inkscape:persp3d-origin="24 : 16 : 1"
       id="perspective2570" />
    <linearGradient
       inkscape:collect="always"
       xlink:href="#linearGradient3593"
       id="linearGradient3780"
       x1="-10.470651"
       y1="446.16394"
       x2="-10.374956"
       y2="461.2359"
       gradientUnits="userSpaceOnUse" />
  </defs>
  <sodipodi:namedview
     id="base"
     pagecolor="#ffffff"
     bordercolor="#666666"
     borderopacity="1.0"
     inkscape:pageopacity="0.0"
     inkscape:pageshadow="2"
     inkscape:zoom="10.916667"
     inkscape:cx="12.503818"
     inkscape:cy="24.00005"
     inkscape:current-layer="layer1"
     showgrid="true"
     inkscape:grid-bbox="true"
     inkscape:document-units="px"
     inkscape:window-width="1270"
     inkscape:window-height="741"
     inkscape:window-x="5"
     inkscape:window-y="30" />
  <metadata
     id="metadata2567">
    <rdf:RDF>
      <cc:Work
         rdf:about="">
        <dc:format>image/svg+xml</dc:format>
        <dc:type
           rdf:resource="http://purl.org/dc/dcmitype/StillImage" />
      </cc:Work>
    </rdf:RDF>
  </metadata>
  <g
     id="layer1"
     inkscape:label="Layer 1"
     inkscape:groupmode="layer">
    <g
       id="g4492"
       transform="translate(4.0897372e-8,4.8750049e-5)">
      <path
         sodipodi:type="arc"
         style="fill:url(#linearGradient2784);fill-opacity:1;stroke:url(#linearGradient2786);stroke-width:0.65147787;stroke-linecap:butt;stroke-linejoin:round;stroke-miterlimit:4;stroke-dasharray:none;stroke-opacity:1"
         id="path3185"
         sodipodi:cx="-10.757737"
         sodipodi:cy="453.96307"
         sodipodi:rx="7.4919953"
         sodipodi:ry="7.4919953"
         d="M -3.2657418,453.96307 A 7.4919953,7.4919953 0 1 1 -18.249732,453.96307 A 7.4919953,7.4919953 0 1 1 -3.2657418,453.96307 z"
         transform="matrix(3.0699432,0,0,3.0699432,57.025642,-1369.6409)" />
      <path
         id="path2781"
         d="M 24,2.026795 C 14.32275,2.026795 6.12936,8.201895 3.1875,16.776795 C 8.751096,20.259055 16.007852,22.401795 24,22.401795 C 31.992148,22.401795 39.248904,20.259055 44.8125,16.776795 C 41.87064,8.201895 33.67725,2.026795 24,2.026795 z"
         style="opacity:0.3;fill:#ffffff;fill-opacity:1" />
      <path
         transform="matrix(0.8452149,0.5344266,-0.5344266,0.8452149,8.4127367,-21.442397)"
         d="M 43.714284,12.285714 A 7.7857141,4.1428571 0 1 1 28.142856,12.285714 A 7.7857141,4.1428571 0 1 1 43.714284,12.285714 z"
         sodipodi:ry="4.1428571"
         sodipodi:rx="7.7857141"
         sodipodi:cy="12.285714"
         sodipodi:cx="35.92857"
         id="path3965"
         style="opacity:0.3;fill:url(#linearGradient3973);fill-opacity:1;stroke:none;stroke-width:4;stroke-linecap:square;stroke-linejoin:miter;stroke-miterlimit:4;stroke-dasharray:none;stroke-opacity:0.3222749;filter:url(#filter4488)"
         sodipodi:type="arc" />
    </g>
    <path
       style="opacity:1;fill:#ffffff;fill-opacity:1;stroke:none;stroke-width:4;stroke-linecap:butt;stroke-linejoin:miter;stroke-miterlimit:4;stroke-dasharray:none;stroke-opacity:1"
       d="M 15.050676,5.4831411 C 13.435245,5.4831411 12.136258,6.782128 12.136258,8.3975587 L 12.136258,39.602441 C 12.136258,41.217872 13.435245,42.516861 15.050676,42.516859 L 32.949326,42.516859 C 34.564756,42.516859 35.863742,41.217871 35.863743,39.602441 L 35.863743,8.3975587 C 35.863743,6.782128 34.564756,5.4831411 32.949326,5.4831411 L 15.050676,5.4831411 z M 15.492255,6.3368593 L 32.507747,6.3368593 C 34.046459,6.3368593 35.304409,7.594812 35.304409,9.1335238 L 35.304409,38.866477 C 35.304409,40.405187 34.046457,41.66314 32.507747,41.66314 L 15.492255,41.66314 C 13.953544,41.66314 12.69559,40.405188 12.69559,38.866477 L 12.69559,9.1335238 C 12.69559,7.594812 13.953544,6.3368593 15.492255,6.3368593 z M 15.610009,6.6018063 C 14.094314,6.6018063 12.872222,7.8238983 12.872222,9.3395937 L 12.872222,38.660407 C 12.872222,40.176101 14.094314,41.398196 15.610009,41.398193 L 32.389992,41.398193 C 33.905687,41.398193 35.127778,40.176103 35.127779,38.660407 L 35.127779,9.3395937 C 35.127779,7.8238983 33.90569,6.6018063 32.389992,6.6018063 L 15.610009,6.6018063 z M 21.35053,7.6615947 L 26.649472,7.6615947 C 26.886691,7.6615947 27.061611,7.7983006 27.061611,7.985419 C 27.061611,8.1725386 26.886691,8.3386826 26.649472,8.3386826 L 21.35053,8.3386826 C 21.113307,8.3386826 20.938389,8.1725386 20.938389,7.985419 C 20.938389,7.7983006 21.113307,7.6615947 21.35053,7.6615947 z M 13.75538,9.0157693 L 34.244622,9.0157693 L 34.244622,35.127779 L 13.75538,35.127779 L 13.75538,9.0157693 z M 24,36.099252 C 25.149736,36.099252 26.090139,37.039653 26.090139,38.189389 C 26.090139,39.339126 25.149736,40.279528 24,40.279528 C 22.850265,40.279529 21.909862,39.339125 21.909862,38.189389 C 21.909862,37.039655 22.850265,36.099252 24,36.099252 z M 23.234597,36.95297 C 22.986179,36.95297 22.76358,37.175569 22.76358,37.423987 L 22.76358,38.954792 C 22.76358,39.203212 22.986179,39.425809 23.234597,39.425809 L 24.765404,39.425809 C 25.013821,39.42581 25.23642,39.20321 25.23642,38.954792 L 25.23642,37.423987 C 25.23642,37.17557 25.01382,36.95297 24.765404,36.95297 L 23.234597,36.95297 z M 23.352352,37.15904 L 24.647649,37.15904 C 24.857848,37.159041 25.030351,37.331542 25.030351,37.541742 L 25.030351,38.837038 C 25.03035,39.047238 24.857849,39.219739 24.647649,39.219739 L 23.352352,39.219739 C 23.142152,39.219739 22.96965,39.047238 22.96965,38.837038 L 22.96965,37.541742 C 22.96965,37.331543 23.142152,37.15904 23.352352,37.15904 z"
       id="rect2392" />
  </g>
</svg>
